# xmcd CD database file
#
# Track frame offsets:
#	150
#	23624
#	38065
#	49880
#	62693
#	75370
#	91821
#	107657
#	118932
#	136611
#	149208
#	162281
#	172476
#	185831
#	200193
#	212377
#	227323
#	243899
#
# Disc length: 3557 seconds
#
# Revision: 3
# Processed by: cddbd v1.5.2PL0 Copyright (c) Steve Scherf et al.
# Submitted via: CDex 1.51
#
DISCID=f80de312
DTITLE=B.B. KING - My Kind Of Blues
DYEAR=1960
DGENRE=Blues
TTITLE0=Lost Your Good Thing Now
TTITLE1=Mr Pawnbroker(Pawn Broker Blues)
TTITLE2=Understand(I'm A Good But A Poor Man)
TTITLE3=Someday Baby
TTITLE4=Driving Wheel
TTITLE5=Walking Dr Bill(Gotta Find My Baby)
TTITLE6=My Own FaultAka It's My Fault
TTITLE7=Fishin' After Me Aka Catfish Blues
TTITLE8=Hold That Train
TTITLE9=Please Set The Date
TTITLE10=Sunny Road
TTITLE11=Running Wild
TTITLE12=Blues At Sunris
TTITLE13=Drifting Blues
TTITLE14=Somebody Done Changed The Lock On My Door
TTITLE15=Look The World Over
TTITLE16=Walking Dr Bill(Gotta Find My Baby)
TTITLE17=Hold That Train
EXTD=YEAR: 1960
EXTT0=
EXTT1=
EXTT2=
EXTT3=
EXTT4=
EXTT5=
EXTT6=
EXTT7=
EXTT8=
EXTT9=
EXTT10=
EXTT11=
EXTT12=
EXTT13=
EXTT14=
EXTT15=
EXTT16=
EXTT17=
PLAYORDER=
